<?xml version="1.0" encoding="utf-8"?>
<!-- Generator: Adobe Illustrator 27.0.0, SVG Export Plug-In . SVG Version: 6.00 Build 0)  -->
<svg version="1.1" id="Layer_1" xmlns="http://www.w3.org/2000/svg" xmlns:xlink="http://www.w3.org/1999/xlink" x="0px" y="0px"
	 viewBox="0 0 512 512" style="enable-background:new 0 0 512 512;" xml:space="preserve">
<style type="text/css">
	.st0{fill:#FFFFFF;}
	.st1{fill:#A81D36;}
	.st2{fill:#231F20;}
	.st3{fill:#A51D38;}
</style>
<g id="g3081" transform="translate(27.4052,104.4449)">
</g>
<g id="g3157" transform="translate(27.6149,100.3553)">
</g>
<g id="g3161" transform="translate(25.8321,103.5013)">
</g>
<g id="g3165" transform="translate(29.0567,105.3884)">
</g>
<g id="g3169" transform="translate(30.7612,102.0583)">
</g>
<g id="g3173" transform="translate(30.0012,99.6472)">
</g>
<g id="g3177" transform="translate(28.3226,102.7673)">
</g>
<g id="g3181" transform="translate(26.5926,106.1229)">
</g>
<g id="g3185" transform="translate(27.4052,104.4449)">
</g>
<g id="g3189" transform="translate(29.1882,101.1938)">
</g>
<g id="XMLID_4_">
	<polygon id="XMLID_6_" class="st0" points="96.17,194.38 5.5,194.38 1.85,236.49 1.57,249.68 29.08,299.79 57.99,326.32 
		88.87,298.11 102.06,250.95 	"/>
	<polygon id="XMLID_7_" class="st0" points="56.59,192.28 56.59,249.68 1.57,249.68 1.71,251.09 56.59,251.09 56.59,319.72 
		56.59,326.32 57.29,326.6 57.99,326.32 57.99,319.72 57.99,192.28 	"/>
	<path id="XMLID_8_" class="st0" d="M28.94,202.94v1.54c1.12-0.84,2.67-1.54,3.79-1.82c-0.7,3.09-2.25,3.79-3.79,4.07v2.53
		c1.4-1.12,3.37-2.53,4.91-2.81c-0.84,3.93-2.81,5.33-4.91,5.61v2.53c1.68-1.12,4.35-2.95,6.18-3.23c-1.12,3.93-3.51,5.47-6.18,5.75
		v2.39c1.68-1.12,4.21-2.81,6.18-3.09c-1.12,3.79-3.65,6.18-6.18,6.46v1.96c1.68-1.12,4.21-2.81,6.18-3.09
		c-0.98,4.07-3.51,6.18-6.18,6.46v1.68c1.97-1.12,5.33-3.23,7.58-3.65c-1.26,4.35-4.49,6.6-7.58,6.88v1.82
		c1.12-0.84,3.37-1.82,4.63-1.96c-0.7,2.95-2.95,3.93-4.63,4.35v3.51l1.12-0.14c-0.14-1.26,0.56-2.39,2.11-3.51
		c0,0.98-0.42,2.25-0.7,3.23c0.84-0.14,1.68-0.42,2.53-0.84c-0.42-1.82,0.14-4.21,2.11-6.18c0.42,1.4,0,3.51-0.14,5.05
		c0.84-0.56,1.82-1.12,2.67-1.82c-0.98-1.68-0.84-4.21,1.12-6.88c0.56,1.26,0.56,3.79,0.56,5.19c0.7-0.84,1.54-1.68,2.39-2.67
		c-1.26-1.68-1.4-3.23,0.28-6.32c0.56,1.26,0.98,3.23,1.12,4.63c0.7-0.84,1.12-1.68,1.82-2.67c-0.42-0.84-0.14-1.4,0.28-1.96
		c0.56-0.7,1.4-1.4,2.25-0.84c1.12,0.56,0.56,1.68,0.14,2.53c-0.28,0.56-0.7,0.98-1.54,0.98c-0.56,0.98-1.4,2.11-2.11,2.95
		c1.54,0.56,2.67,0.84,3.79,1.96c-2.39,0.98-3.79,0.7-4.91-0.28c-0.7,0.98-1.82,2.11-2.67,2.95c1.54,0.42,2.53,0.84,3.79,2.25
		c-2.53,1.12-4.49,0.7-5.61-0.42c-0.84,0.7-1.68,1.54-2.67,2.11c1.54,0.84,2.67,1.54,3.51,2.81c-2.95,0.7-4.77-0.14-5.75-1.82
		c-0.84,0.28-1.68,0.7-2.53,0.84c0.84,0.7,1.4,1.26,1.82,2.25c-1.97,0-3.09-0.56-3.37-1.68l-1.26,0.28v3.93l-2.53-1.12v-2.81
		l-1.12-0.28c-0.42,1.12-1.26,1.68-3.09,1.68c0.42-0.98,0.7-1.68,1.68-2.11c-0.84-0.28-1.68-0.7-2.53-1.12
		c-0.7,1.82-2.53,2.53-5.61,1.82c0.84-1.26,2.11-2.39,3.65-2.95c-0.84-0.56-1.54-0.98-2.25-1.68c-1.12,1.26-3.09,1.68-5.61,0.56
		c1.12-1.12,2.11-1.96,3.79-2.25c-0.84-0.84-1.54-1.82-2.39-2.81c-1.12,0.98-2.95,1.4-5.33,0.42c1.12-1.12,2.25-2.25,3.79-2.25
		c-0.42-0.7-0.84-1.4-1.4-2.25c-0.56,0-0.98,0-1.54-0.7c-0.56-0.7-1.12-2.25-0.14-2.81c0.56-0.56,1.97,0.28,2.39,0.98
		c0.42,0.7,0.28,1.26,0.14,1.68c0.42,0.7,0.98,1.54,1.54,2.11c-0.28-2.11,0.28-3.93,0.84-5.19c1.97,2.67,1.54,5.05,0.56,6.6
		c0.84,0.98,1.54,1.68,2.25,2.53c-0.28-1.54,0-3.79,0.56-5.05c1.82,2.53,2.11,5.05,1.26,6.74c0.7,0.7,1.4,1.26,2.25,1.68
		c-0.42-1.4-0.56-3.79-0.28-5.19c2.11,2.11,2.67,4.35,2.25,6.18c0.84,0.42,1.68,0.7,2.53,0.98c-0.42-0.84-0.84-2.25-0.7-3.23
		c1.54,0.98,1.97,2.11,1.82,3.23l1.12,0.28v-3.37c-1.54-0.42-3.79-1.26-4.49-4.21c1.4,0.28,3.23,0.7,4.49,1.82v-1.82
		c-3.09-0.28-6.18-2.39-7.58-6.74c2.67,0.42,5.19,1.68,7.58,3.37v-1.54c-2.67-0.14-5.19-2.67-6.32-6.18
		c2.25,0.42,4.21,1.4,6.32,2.81v-1.96c-2.53-0.28-5.05-2.39-6.32-6.32c2.25,0.42,4.21,1.4,6.32,2.81v-2.25
		c-2.53-0.14-5.05-1.68-6.32-5.61c2.25,0.42,4.21,1.54,6.32,3.09v-2.53c-1.97-0.28-3.93-1.54-4.91-5.47
		c1.82,0.42,3.37,1.12,4.91,2.67v-2.53c-1.54-0.28-2.95-0.84-3.79-3.93c1.12,0.28,2.39,0.28,3.79,1.54v-1.54
		c-1.12-1.82-0.98-2.53-0.84-3.93c0.14-1.26,0.56-2.25,1.97-2.25s1.82,0.98,1.97,2.25C29.92,200.42,30.06,201.12,28.94,202.94"/>
	<path id="XMLID_22_" class="st0" d="M86.34,234.67c0.84-9.68,2.25-12.49,4.77-14.46l0.14-0.14l-0.84-6.04l-0.42,0.14
		c-1.26,0.28-2.53,1.4-3.37,2.53v-5.61l-6.6-3.93v3.37c-0.7-0.7-1.4-1.26-1.68-1.4c-0.7-0.56-1.4-0.84-2.11-0.84l-0.98,0.14
		c-0.56,0.14-0.84,0.28-1.68-0.14c-3.37-0.7-5.9,0-7.3,2.11c-1.26,1.82-1.54,4.77-0.56,7.58c0.84,2.25,2.39,4.63,3.51,6.18
		c0.7,0.84,6.46,7.02,7.72,8.42c0.98,0.98,1.97,1.96,3.09,2.95v2.53l-1.68-1.12l-1.68,3.79l0.28,0.28c1.4,0.84,2.95,3.23,3.93,15.58
		c-3.51,1.26-8.42,5.61-8.56,9.97c0,2.11,0.98,4.91,5.9,6.88c1.12,0.42,2.25,0.84,3.37,1.4c0,2.25,0.14,4.63,0.14,7.16
		c-0.84,0.28-2.95,1.4-3.37,3.09c-0.28,1.26,0.56,2.67,2.39,3.79l0.98,0.42c0,0.7,0,1.4,0,1.96c-1.12,0.56-1.54,0.84-2.25,1.54
		l-0.42,1.26l0.56,0.28c0.28,0,0.7-0.14,1.4-0.42l0.84-0.28c0.28,0.7,0.98,1.26,1.68,1.26c0.84,0,1.4-0.56,1.68-1.54v-0.84
		c0.84-0.42,1.4-1.26,1.54-2.25c0-1.12-0.56-2.25-1.54-2.95c0-0.98,0-1.82,0-2.81c3.37-0.7,6.88-2.81,7.3-5.75
		c0.14-1.68-0.7-4.35-6.32-6.6l-0.98-0.42c0-4.49,0-8.7,0-12.35c5.9-2.95,9.97-5.75,10.53-9.4
		C96.59,246.17,93.5,241.54,86.34,234.67z M76.38,209.54l0.84,0.14l0.28,0.56l-0.14,0.42l-0.42,0.14l-0.56-0.28l-0.28-0.56
		L76.38,209.54z M74.84,212.35l0.84-0.14l0.42,0.84l-0.56,0.28l-0.42-0.14l-0.42-0.42L74.84,212.35z M78.06,226.81
		c-8.98-8.14-9.4-11.79-8.84-13.33c0.56-1.4,2.11-1.68,2.95-1.68h0.42l0.42,0.42c0.14,0.56,0.42,1.4,2.11,1.96
		c2.11,0.7,3.65,1.12,4.91,1.12v13.19C79.47,228.07,78.77,227.51,78.06,226.81z M88.87,279.02c0,0.42-0.56,1.12-3.23,1.96
		c0-1.54,0-3.23,0-4.63C87.47,277.33,88.87,278.18,88.87,279.02z M85.64,211.51v3.93l-2.39-0.7l-1.12-0.56
		c0.14-0.84-0.42-1.82-1.26-2.81v-2.81L85.64,211.51z M77.08,266.53c-0.14-1.12,1.12-2.67,4.35-5.05c0.14,2.53,0.28,5.47,0.42,8.7
		C79.05,268.91,77.22,267.79,77.08,266.53z M82.84,275.09c0.56,0.28,1.26,0.56,1.82,0.84c0,1.82,0,3.51,0,5.47l0,0v3.37l0,0
		c0,0.7,0,1.4,0,2.11c-0.42-0.14-1.4-0.7-1.54-1.54C82.98,281.55,82.98,278.18,82.84,275.09z M83.96,293.9l-0.84-0.56v-0.14
		c0-1.26,0-2.53,0-3.65c0.98,0.28,1.54,0.42,1.54,1.68v1.68l0,0v0.28C84.66,293.9,84.1,293.9,83.96,293.9z M84.66,271.44
		c-0.7-0.28-1.26-0.56-1.82-0.84c-0.98-26.39-2.95-29.19-4.77-30.46l0.84-1.96l2.25,1.54v-3.51l1.26,1.12
		c0.98,0.84,1.97,1.68,2.81,2.53C84.8,247.16,84.66,257.26,84.66,271.44z M85.5,233.68c-1.4-1.26-2.81-2.67-4.49-4.21V215.3
		l0.7-0.28l1.12,0.56l1.4,2.25l0.42-0.14l-0.14-1.4l1.12-0.28v2.25l0.84,0.14c0.42-0.98,1.82-2.81,3.09-3.37l0.7,4.49
		C87.89,221.75,86.34,224.42,85.5,233.68z M85.64,254.46c0.14-5.47,0.14-9.97,0.42-13.76c3.23,3.09,5.61,6.04,5.19,8.56
		C90.84,251.23,89.01,252.91,85.64,254.46z"/>
	<path id="XMLID_33_" class="st0" d="M42.97,273.26v-12.21H21.22v21.62h6.74v12.21h21.62v-21.62L42.97,273.26L42.97,273.26z
		 M36.52,263.86h3.51v9.12h-3.51V263.86z M40.17,282.81v2.81h-2.81v-2.81H40.17z M24.59,263.86h9.12v3.51h-9.12V263.86z M27.96,280
		h-3.51v-9.12h3.51V280z M30.76,270.6h2.81v2.81h-2.81V270.6z M31.04,276.49h9.12V280h-9.12V276.49z M34.69,291.79h-3.51v-9.12h3.51
		V291.79z M46.34,291.79h-9.12v-3.51h9.12V291.79z M46.48,285.48h-3.51v-9.12h3.51V285.48z"/>
	<path id="XMLID_36_" class="st1" d="M243.12,261.47c-13.05,0-14.04-9.83-14.04-12.91c0-3.51,0.98-9.83,9.26-12.91
		c8.56-3.09,10.39-3.51,16.28-5.33v-1.54c0-2.81,0-3.51-0.56-5.33c-1.12-3.37-4.35-5.47-8.84-5.47c-6.46,0-9.12,4.91-9.12,5.05
		l-0.56,0.98l-2.39-1.4l0.28-0.7c1.12-3.79,5.9-10.11,16.28-10.11c6.74,0,11.09,1.96,13.76,6.04c1.97,3.23,2.11,7.72,2.11,12.49
		c0,4.07-0.14,8.7-0.14,12.49c0,2.53-0.14,4.77-0.14,6.18c0,3.37,0.56,6.04,3.37,6.04c0.7,0,1.12-0.14,1.54-0.42l0.84-0.7l1.54,1.82
		l-0.56,0.7c-2.67,3.09-5.05,5.33-9.54,5.33c-3.79,0-6.46-1.82-7.3-4.91C253.09,258.81,249.16,261.47,243.12,261.47z M254.63,236.21
		c-6.46,1.96-8.56,2.95-10.53,3.93c-2.81,1.4-4.21,4.21-4.21,7.58c0,2.67,0.98,7.02,7.16,7.02c2.11,0,5.05-0.42,7.58-2.25V236.21z"
		/>
	<path id="XMLID_37_" class="st1" d="M163.54,261.33c-6.18,0-10.95-0.7-15.86-2.25l-0.7-0.28v-3.51c0-4.63-0.14-6.46-0.14-8
		l-0.14-2.39h2.81v0.98c0.14,2.11,0.84,4.35,2.11,5.75c2.11,2.25,6.74,3.65,11.09,3.65c9.12,0,13.47-3.51,13.47-10.95
		c0-6.32-3.93-8.98-9.4-12.77l-0.84-0.56l-5.75-3.79c-8-5.33-12.07-9.54-12.07-17.97c0-4.21,1.54-17.69,21.76-17.69
		c8.28,0,14.6,1.12,14.88,1.12l0.84,0.14v0.84c0,0,0,2.67,0,5.47c0,2.25,0,4.21,0,6.18l0.14,1.54h-2.39v-0.98
		c-0.14-2.53-0.98-4.35-2.39-5.75c-1.96-1.96-6.18-2.81-10.81-2.81c-10.67,0-11.93,5.47-11.93,9.54c0,5.61,2.95,7.58,9.26,11.79
		l7.3,4.77c6.18,4.07,12.07,8,12.07,18.39C186.84,259.51,170.56,261.33,163.54,261.33z"/>
	<path id="XMLID_38_" class="st1" d="M211.26,261.61c-7.44,0-11.51-2.67-13.33-8.56c-0.7-2.39-0.7-7.02-0.7-9.83
		c0-7.72,0-13.9,0.14-20.91v-3.37h-6.32v-1.82l0.56-0.28c2.95-1.26,4.07-2.11,5.33-3.09c4.63-3.65,7.86-9.68,7.86-9.68l1.12-1.82
		h2.11v10.81h16.42v5.9h-16.42v25.26c0,7.58,1.4,11.79,8.56,11.79c3.37,0,5.9-1.26,5.9-1.26l0.98-0.56l0.84,1.97l-0.42,0.42
		C223.75,256.84,219.97,261.61,211.26,261.61z"/>
	<path id="XMLID_39_" class="st1" d="M276.67,261.05v-2.25h0.98c0.84,0,2.81-0.42,4.21-1.96c1.54-1.68,1.54-5.75,1.54-13.9v-13.76
		c0-5.9-0.14-8.42-0.98-9.68c-0.98-1.4-3.09-1.54-4.35-1.68h-0.42l-0.98-0.14v-2.81l1.12,0.14h0.7c1.54,0,5.05-0.14,8.7-0.98
		c2.81-0.42,4.49-1.4,5.05-1.68l0.56-0.28l0.98,0.56v3.79c2.39-1.82,7.3-4.63,13.9-4.63c8.7,0,14.32,4.07,16,11.37
		c0.42,1.82,0.56,6.18,0.56,8.56v14.04c0,8,0.28,10.11,1.82,11.51c0.7,0.7,2.39,1.26,3.65,1.4h0.98v2.25l-2.39-0.14
		c-3.51-0.14-6.46-0.28-9.54-0.28c-3.51,0-6.6,0-10.95,0.42l-1.12,0.14v-2.25l0.84-0.14c1.82-0.28,3.23-0.84,3.93-1.68
		c1.54-1.54,1.68-5.19,1.82-8.42c0-0.56,0-1.12,0-1.68c0.14-1.82,0.14-5.61,0.14-8.28c0-3.65,0-7.3-0.42-10.95
		c-0.7-6.18-3.93-9.12-10.25-9.12c-4.35,0-7.02,0.98-8.98,1.96v25.26c0,8,0.28,10.11,1.82,11.51c0.7,0.7,2.39,1.26,3.65,1.4h0.98
		v2.25l-2.53-0.14c-3.37-0.14-6.18-0.28-9.26-0.28c-3.51,0-6.74,0-11.09,0.42L276.67,261.05z"/>
	<path id="XMLID_40_" class="st1" d="M336.6,261.05v-2.25h0.98c0.84,0,2.81-0.42,4.21-1.96c1.54-1.68,1.54-5.75,1.54-13.9v-23.86
		h-6.32v-2.67l0.56-0.28c2.67-1.12,4.35-1.96,5.61-2.95c0-4.21,0.14-9.68,0.7-12.77c1.96-9.97,8.42-15.02,19.23-15.02
		c4.63,0,9.12,1.54,11.79,3.65l0.42,0.28l0.14,0.98l-4.77,6.6h-1.12l-0.28-0.56c-1.82-4.07-4.49-5.61-8.14-5.61
		c-1.54,0-3.51,0.42-4.91,1.68c-2.11,2.11-2.39,5.19-2.39,11.23v9.26h10.67v5.9h-10.67v26.67c0,6.32,0.14,9.4,0.98,10.67
		c1.4,1.96,5.47,2.25,6.6,2.25h0.98v2.53h-1.12c-5.33-0.28-9.26-0.42-12.07-0.42c-3.51,0-7.58,0-11.93,0.42L336.6,261.05z"/>
	<path id="XMLID_43_" class="st1" d="M391.9,261.9c-14.6,0-23.44-9.12-23.44-24.42c0-11.93,6.46-25.69,24.42-25.69
		c14.74,0,23.44,9.12,23.44,24.42C416.33,248,409.87,261.9,391.9,261.9z M392.46,217.26c-2.81,0-5.05,0.7-6.74,2.25
		c-3.93,3.23-5.75,9.12-5.75,17.54c0,3.23,0.56,19.37,12.49,19.37c2.81,0,5.05-0.7,6.88-2.25c3.79-3.23,5.75-9.12,5.75-17.54
		C404.96,233.4,404.25,217.26,392.46,217.26z"/>
	<path id="XMLID_44_" class="st1" d="M420.96,261.05v-2.39l0.98-0.14c0.84,0,2.81-0.42,4.21-1.96c1.54-1.68,1.54-5.61,1.54-13.76
		v-13.76c0-5.9-0.14-8.42-0.98-9.68c-0.98-1.4-3.09-1.54-4.35-1.68h-0.42l-0.98-0.14v-2.95h0.98h0.84c1.54,0,5.05-0.14,8.7-0.84
		c2.39-0.42,4.35-0.98,5.19-1.4l0.56-0.28l0.84,0.42v4.21c2.25-2.11,5.9-4.49,11.09-4.49c3.37,0,6.04,0.84,8,2.67l0.28,0.28v1.54
		l-4.07,7.44h-1.96l-0.28-0.42c-1.12-1.82-3.37-3.93-7.72-3.93c-1.96,0-3.65,0.56-5.19,1.54v24.28c0,6.32,0.14,9.4,0.98,10.53
		c1.4,1.96,5.47,2.11,6.6,2.11h0.98v2.67h-1.12c-5.33-0.28-9.26-0.42-12.07-0.42c-3.51,0-7.58,0-11.93,0.42L420.96,261.05z"/>
	<path id="XMLID_47_" class="st1" d="M496.47,261.75l-1.26-0.42v-4.07c-2.39,1.82-7.16,4.49-13.47,4.49
		c-13.19,0-21.76-9.12-21.76-23.3c0-4.63,0.98-9.12,2.67-12.91c4.07-8.7,12.35-13.76,22.88-13.76c3.93,0,7.3,0.42,9.4,0.98v-10.25
		c0-6.04-0.14-9.12-0.98-10.53c-0.98-1.4-3.09-1.54-4.21-1.68h-0.42l-0.84-0.14l0.14-2.11h0.98c0.28,0,5.75-0.42,10.25-1.4
		c1.82-0.28,3.79-0.7,4.77-1.12l0.42-0.14l0.84,0.56v0.42c-0.28,3.93-0.42,12.49-0.42,18.81v39.16c0,5.9,0.14,9.54,0.98,10.67
		c0.98,1.4,3.09,1.68,4.21,1.82h0.42h0.84v2.53h-0.98c-1.12,0-5.33,0.28-9.26,0.98c-2.39,0.42-4.07,0.7-4.91,1.12L496.47,261.75z
		 M485.38,217.54c-9.4,0-13.9,6.46-13.9,19.65c0,5.33,1.54,17.83,15.44,17.83h0.42c1.68,0,4.91-0.28,7.58-1.96v-32.14
		C494.22,219.93,491.28,217.54,485.38,217.54z"/>
	<path id="XMLID_48_" class="st2" d="M151.75,281.97h7.86l7.16,19.65l2.67,7.58h0.28l2.53-7.58l7.16-19.65h7.86v40h-6.74v-18.25
		c0-3.79,0.56-9.12,0.98-12.77h-0.28l-3.23,9.12l-6.88,18.25h-3.37l-6.88-18.25l-3.23-9.12h-0.28c0.42,3.65,0.98,8.98,0.98,12.77
		v18.25h-6.6L151.75,281.97L151.75,281.97z"/>
	<polygon id="XMLID_49_" class="st2" points="212.67,281.97 236.81,281.97 236.81,288 219.82,288 219.82,298.25 234.14,298.25 
		234.14,304.28 219.82,304.28 219.82,316.07 237.37,316.07 237.37,321.97 212.67,321.97 	"/>
	<path id="XMLID_52_" class="st2" d="M260.95,281.97h10.67c12.21,0,19.51,6.6,19.51,19.79c0,13.33-7.16,20.21-19.09,20.21h-11.09
		V281.97z M271.2,316.21c8.14,0,12.63-4.63,12.63-14.46c0-9.83-4.63-14.04-12.63-14.04h-3.09v28.49H271.2z"/>
	<rect id="XMLID_53_" x="314.57" y="281.97" class="st2" width="7.16" height="40"/>
	<path id="XMLID_54_" class="st2" d="M363.55,281.26c4.77,0,8.84,2.39,11.37,5.05l-3.93,4.35c-1.96-1.96-4.35-3.37-7.3-3.37
		c-6.6,0-11.23,5.47-11.23,14.46c0,9.12,4.35,14.6,11.09,14.6c3.51,0,6.18-1.4,8.42-3.93l3.93,4.35c-3.23,3.79-7.44,5.75-12.49,5.75
		c-10.25,0-18.11-7.3-18.11-20.63C345.02,288.98,353.16,281.26,363.55,281.26z"/>
	<rect id="XMLID_55_" x="397.66" y="281.97" class="st2" width="7.16" height="40"/>
	<path id="XMLID_56_" class="st2" d="M430.22,281.97h7.3l12.49,22.46l4.07,8.56h0.28c-0.28-4.07-0.98-9.12-0.98-13.61v-17.4h6.74v40
		h-7.3l-12.49-22.46l-4.07-8.56h-0.28c0.28,4.21,0.98,9.12,0.98,13.47v17.54h-6.74V281.97z"/>
	<polygon id="XMLID_57_" class="st2" points="485.66,281.97 509.8,281.97 509.8,288 492.82,288 492.82,298.25 507.14,298.25 
		507.14,304.28 492.82,304.28 492.82,316.07 510.5,316.07 510.5,321.97 485.66,321.97 	"/>
	<polyline id="XMLID_58_" class="st3" points="75.4,212.91 75.96,212.77 75.68,212.35 75.12,212.35 75.4,212.91 	"/>
	<polyline id="XMLID_59_" class="st3" points="76.66,210.1 77.22,210.24 77.08,209.68 76.52,209.54 76.66,210.1 	"/>
	<path id="XMLID_60_" class="st1" d="M82.27,214.17l1.12,0.56l2.39,0.56v-3.93l-4.63-2.81v2.81
		C81.85,212.35,82.41,213.47,82.27,214.17z"/>
	<path id="XMLID_61_" class="st1" d="M88.87,279.02c0-0.84-1.26-1.68-3.23-2.67c0,1.54,0,3.09,0,4.63
		C88.45,280.14,88.87,279.3,88.87,279.02z"/>
	<path id="XMLID_62_" class="st1" d="M77.08,266.53c0.14,1.26,1.97,2.39,4.63,3.65c-0.14-3.23-0.28-6.18-0.42-8.7
		C78.34,263.72,76.94,265.26,77.08,266.53z"/>
	<path id="XMLID_63_" class="st1" d="M84.8,286.74c0-0.7,0-1.4,0-2.11l0,0v-3.37l0,0c0-1.82,0-3.65,0-5.47
		c-0.56-0.28-1.12-0.56-1.82-0.84c0.14,3.09,0.14,6.6,0.28,10.25C83.4,286.04,84.24,286.6,84.8,286.74z"/>
	<path id="XMLID_64_" class="st1" d="M75.26,214.17c-1.68-0.56-1.97-1.4-2.11-1.96l-0.42-0.42h-0.42c-0.84,0-2.39,0.42-2.95,1.68
		c-0.56,1.54-0.14,5.19,8.84,13.33c0.7,0.7,1.26,1.26,1.97,1.82v-13.19C79.05,215.3,77.36,214.88,75.26,214.17z"/>
	<polygon id="XMLID_65_" class="st1" points="75.68,213.19 76.24,212.91 75.82,212.07 74.98,212.21 74.84,212.63 75.26,213.05 	"/>
	<polygon id="XMLID_66_" class="st1" points="77.08,210.52 77.5,210.38 77.5,210.1 77.22,209.54 76.38,209.4 76.24,209.82 
		76.52,210.38 	"/>
	<path id="XMLID_67_" class="st1" d="M84.8,292.91v-1.68c0-1.26-0.56-1.54-1.54-1.68c0,1.26,0,2.39,0,3.65v0.14l0.84,0.56
		c0.14,0,0.56,0,0.7-0.56V292.91L84.8,292.91z"/>
	<path id="XMLID_68_" class="st1" d="M85.78,254.46c3.37-1.54,5.19-3.23,5.47-5.19c0.42-2.67-1.96-5.47-5.19-8.56
		C85.92,244.49,85.78,248.98,85.78,254.46z"/>
	<path id="XMLID_71_" class="st1" d="M109.22,192.28H57.99v127.3v6.6c3.79-2.11,7.3-4.35,10.67-6.6
		C130.28,277.05,114.14,203.65,109.22,192.28z M96.17,249.96c-0.56,3.79-4.63,6.46-10.53,9.54c0,3.79,0,7.86,0,12.35l0.98,0.42
		c5.47,2.25,6.46,4.77,6.32,6.6c-0.28,2.95-3.93,5.05-7.3,5.75c0,0.98,0,1.82,0,2.81c0.98,0.7,1.54,1.82,1.54,2.95
		c0,0.98-0.56,1.82-1.54,2.25v0.84c-0.14,0.98-0.84,1.4-1.68,1.4c-0.7,0-1.4-0.42-1.68-1.12l-0.84,0.28
		c-0.7,0.28-1.12,0.42-1.4,0.42l-0.56-0.28l0.42-1.26c0.7-0.7,1.12-0.98,2.25-1.54c0-0.7,0-1.4,0-1.96l-0.98-0.42
		c-1.97-1.26-2.67-2.53-2.39-3.79c0.42-1.68,2.39-2.81,3.37-3.09c0-2.53-0.14-4.91-0.14-7.16c-1.12-0.42-2.39-0.98-3.37-1.4
		c-5.05-1.96-6.04-4.77-5.9-6.88c0.14-4.35,4.91-8.7,8.56-9.97c-0.98-12.35-2.39-14.74-3.93-15.58l-0.42-0.28l1.68-3.79l1.68,1.12
		v-2.53c-0.98-0.98-2.11-1.96-3.09-2.95c-1.26-1.4-7.16-7.44-7.72-8.42c-1.12-1.54-2.67-3.79-3.51-6.18
		c-0.98-2.81-0.7-5.75,0.56-7.58c1.4-1.96,3.93-2.81,7.3-2.11c0.7,0.28,1.12,0.28,1.68,0.14l0.98-0.14c0.7,0,1.26,0.28,2.11,0.84
		c0.28,0.14,0.98,0.7,1.68,1.4v-3.37l6.6,3.93v5.61c0.84-1.12,1.96-2.39,3.37-2.53l0.42-0.14l0.98,6.04l-0.14,0.14
		c-2.39,2.11-3.93,4.77-4.77,14.46C93.5,241.4,96.73,246.03,96.17,249.96z"/>
	<path id="XMLID_72_" class="st1" d="M90.42,219.51l-0.7-4.49c-1.26,0.56-2.53,2.39-3.09,3.37l-0.84-0.14V216l-1.12,0.28l0.14,1.4
		l-0.42,0.14l-1.4-2.25l-1.12-0.56l-0.7,0.28v14.18c1.68,1.54,3.09,2.95,4.49,4.21C86.49,224.42,87.89,221.61,90.42,219.51z"/>
	<path id="XMLID_73_" class="st1" d="M81.15,236.07v3.51l-2.25-1.54L78.06,240c1.82,1.26,3.79,4.07,4.77,30.46
		c0.56,0.28,1.26,0.56,1.82,0.84c0-14.32,0.14-24.28,0.42-31.58c-0.98-0.84-1.82-1.68-2.81-2.53L81.15,236.07z"/>
	<path id="XMLID_76_" class="st1" d="M1.57,249.68h55.16v-57.41H5.5C2.83,198.31-2.92,222.17,1.57,249.68z M9.99,229.61
		c-0.56,0-0.98,0-1.54-0.7s-1.12-2.25-0.14-2.81c0.56-0.56,1.97,0.28,2.39,1.12c0.42,0.7,0.28,1.26,0.14,1.68
		c0.42,0.7,0.98,1.54,1.54,2.11c-0.28-2.11,0.28-3.93,0.84-5.19c1.97,2.67,1.54,5.05,0.56,6.6c0.84,0.98,1.4,1.68,2.25,2.53
		c-0.28-1.54,0-3.79,0.56-5.05c1.82,2.53,2.11,5.05,1.26,6.74c0.7,0.7,1.4,1.26,2.25,1.68c-0.42-1.4-0.56-3.79-0.28-5.19
		c2.11,2.11,2.67,4.35,2.25,6.18c0.84,0.42,1.68,0.7,2.53,0.98c-0.42-0.84-0.84-2.25-0.7-3.23c1.54,0.98,1.97,2.11,1.82,3.23
		l1.12,0.28v-3.37c-1.54-0.42-3.79-1.26-4.49-4.21c1.4,0.28,3.23,0.7,4.49,1.82v-1.82c-3.09-0.28-6.18-2.39-7.58-6.74
		c2.67,0.42,5.19,1.68,7.58,3.37v-1.54c-2.67-0.14-5.19-2.67-6.32-6.18c2.25,0.42,4.21,1.4,6.32,2.81v-1.96
		c-2.53-0.28-5.05-2.39-6.32-6.32c2.25,0.42,4.21,1.4,6.32,2.81v-2.25c-2.53-0.14-5.05-1.54-6.32-5.61
		c2.25,0.42,4.21,1.54,6.32,3.09v-2.53c-1.97-0.28-3.93-1.54-4.91-5.47c1.82,0.42,3.37,1.12,4.91,2.67v-2.53
		c-1.54-0.28-2.95-0.84-3.79-3.93c1.12,0.28,2.39,0.28,3.79,1.54v-1.54c-1.12-1.82-0.84-2.53-0.84-3.93
		c0.14-1.26,0.56-2.25,1.97-2.25c1.4,0,1.82,0.98,1.97,2.25c0.14,1.4,0.42,2.11-0.84,3.93v1.54c1.12-0.84,2.67-1.54,3.79-1.82
		c-0.7,3.09-2.25,3.79-3.79,4.07v2.53c1.4-1.12,3.37-2.53,4.91-2.81c-0.84,3.93-2.81,5.33-4.91,5.61v2.53
		c1.68-1.12,4.35-2.95,6.18-3.23c-1.12,3.93-3.51,5.47-6.18,5.75v2.39c1.68-1.12,4.21-2.81,6.18-3.09
		c-1.12,3.79-3.65,6.18-6.18,6.46v1.96c1.68-1.12,4.21-2.81,6.18-3.09c-0.98,4.07-3.51,6.18-6.18,6.46v1.68
		c1.97-1.12,5.33-3.23,7.58-3.65c-1.26,4.35-4.49,6.6-7.58,6.88v1.82c1.12-0.84,3.37-1.82,4.63-1.96c-0.7,2.95-2.95,3.93-4.63,4.35
		v3.51l1.12-0.14c-0.14-1.26,0.56-2.39,2.11-3.51c0,0.98-0.42,2.25-0.7,3.23c0.84-0.14,1.68-0.42,2.53-0.84
		c-0.42-1.82,0.14-4.21,2.11-6.18c0.42,1.4,0,3.51-0.14,5.05c0.84-0.56,1.82-1.12,2.67-1.82c-0.98-1.68-0.84-4.21,1.12-6.88
		c0.56,1.26,0.56,3.79,0.56,5.19c0.7-0.84,1.54-1.68,2.39-2.67c-1.26-1.68-1.4-3.23,0.28-6.32c0.56,1.26,1.12,3.23,1.12,4.63
		c0.7-0.84,1.12-1.68,1.82-2.67c-0.28-0.84-0.14-1.4,0.28-1.96c0.56-0.7,1.4-1.4,2.25-0.84c1.12,0.56,0.56,1.68,0.14,2.53
		c-0.28,0.56-0.7,0.98-1.54,0.98c-0.56,0.98-1.4,2.11-2.11,2.95c1.54,0.56,2.67,0.84,3.79,1.96c-2.39,0.98-3.79,0.7-4.91-0.28
		c-0.7,0.98-1.82,2.11-2.67,2.95c1.54,0.42,2.53,0.84,3.79,2.25c-2.53,1.12-4.49,0.7-5.61-0.42c-0.84,0.7-1.68,1.54-2.67,2.11
		c1.54,0.84,2.67,1.54,3.51,2.81c-2.95,0.7-4.77-0.14-5.75-1.82c-0.84,0.28-1.68,0.7-2.53,0.84c0.84,0.7,1.4,1.26,1.82,2.25
		c-1.97,0-3.09-0.56-3.37-1.68l-1.26,0.28v3.93l-2.53-1.12v-2.81l-1.12-0.28c-0.42,1.12-1.26,1.68-3.09,1.68
		c0.42-0.98,0.7-1.68,1.68-2.11c-0.84-0.28-1.68-0.7-2.53-1.12c-0.7,1.82-2.53,2.53-5.61,1.82c0.84-1.26,2.11-2.39,3.65-2.95
		c-0.84-0.56-1.54-0.98-2.25-1.68c-1.12,1.26-3.09,1.68-5.61,0.56c1.12-1.12,2.11-1.96,3.79-2.25c-0.84-0.84-1.54-1.82-2.39-2.81
		c-1.12,0.98-2.95,1.4-5.33,0.42c1.12-1.12,2.25-2.25,3.79-2.25C10.83,231.16,10.41,230.31,9.99,229.61z"/>
	<rect id="XMLID_77_" x="31.18" y="282.67" class="st1" width="3.51" height="9.12"/>
	<rect id="XMLID_78_" x="37.36" y="288.14" class="st1" width="9.12" height="3.51"/>
	<rect id="XMLID_79_" x="42.97" y="276.21" class="st1" width="3.51" height="9.12"/>
	<rect id="XMLID_80_" x="30.76" y="270.46" class="st1" width="2.81" height="2.81"/>
	<rect id="XMLID_81_" x="31.04" y="276.35" class="st1" width="9.12" height="3.51"/>
	<rect id="XMLID_82_" x="37.5" y="282.67" class="st1" width="2.81" height="2.81"/>
	<path id="XMLID_85_" class="st1" d="M46.06,319.58c3.37,2.25,6.88,4.49,10.67,6.6v-6.6v-68.63H1.85
		C6.06,274.39,17.99,300.21,46.06,319.58z M42.97,261.05v12.21h6.74v21.76H28.1v-12.35h-6.74v-21.62H42.97z"/>
	<rect id="XMLID_86_" x="24.45" y="270.88" class="st1" width="3.51" height="9.12"/>
	<rect id="XMLID_87_" x="36.66" y="263.72" class="st1" width="3.51" height="9.12"/>
	<rect id="XMLID_88_" x="24.59" y="263.72" class="st1" width="9.12" height="3.51"/>
</g>
</svg>
